<?xml version="1.0" encoding="utf-8"?>
<!-- Generator: Adobe Illustrator 26.0.2, SVG Export Plug-In . SVG Version: 6.00 Build 0)  -->
<svg version="1.1" id="Layer_1" xmlns="http://www.w3.org/2000/svg" xmlns:xlink="http://www.w3.org/1999/xlink" x="0px" y="0px"
	 viewBox="0 0 960 640" style="enable-background:new 0 0 960 640;" xml:space="preserve">
<style type="text/css">
	.st0{fill-rule:evenodd;clip-rule:evenodd;fill:#6E4A00;}
	.st1{fill-rule:evenodd;clip-rule:evenodd;fill:#FFFFFF;}
</style>
<g>
	<polygon class="st0" points="374.7,157.4 585.3,157.4 585.3,482.6 374.7,482.6 	"/>
	<polygon class="st1" points="442.1,351.1 423.9,382.5 460.2,382.5 	"/>
	<path class="st1" d="M466.7,186.5l0.3,0.3c-0.4,0.9-0.8,1.8-1.3,2.6l-0.4,0c-3.2,5.5-7.5,10.4-12.6,14.3l0.6,0
		c-5.3,3.4-10.9,6.1-16.9,8.2l0,0.1c-5.5,2-11.3,3-17.2,3c-0.3,0-0.6,0-1,0l0,0.5c-6.7,1.6-11.7,7.1-12.6,13.8l-0.1,0l-1.3,14.3
		l-0.1,0c-0.4,1.6-0.5,3.2-0.5,4.9c0,5.1,1.8,10.1,5,14.2l-0.2,0.1c2.6,3.2,5.8,5.8,9.5,7.7l0,0.4l3.2-12.6l8.8,1.6l1.6,42.5l0,0.1
		c3.9,18.5,12.8,35.6,25.7,49.5l-0.1,0.4l99.5,102.1L525,339.4l-0.1,0c0-1,0.1-2,0.1-2.9c0-8.7-1.2-17.4-3.6-25.8l-0.3,0.7
		c-7.2-21.5-19.4-41-35.5-56.9l0.4-0.2c-1-11.2-6.2-21.7-14.4-29.5l-0.2-0.3c3.5-5.1,5.4-11.1,5.4-17.3c0-7.3-2.6-14.3-7.3-19.9
		l-1.7-0.2c0.1-0.4,0.4-0.7,0.6-0.7c0.3,0,0.5,0.3,0.6,0.7L466.7,186.5z"/>
</g>
</svg>
