<?xml version="1.0" encoding="utf-8"?>
<!-- Generator: Adobe Illustrator 26.0.2, SVG Export Plug-In . SVG Version: 6.00 Build 0)  -->
<svg version="1.1" id="Layer_1" xmlns="http://www.w3.org/2000/svg" xmlns:xlink="http://www.w3.org/1999/xlink" x="0px" y="0px"
	 viewBox="0 0 960 640" style="enable-background:new 0 0 960 640;" xml:space="preserve">
<style type="text/css">
	.st0{fill-rule:evenodd;clip-rule:evenodd;}
	.st1{fill-rule:evenodd;clip-rule:evenodd;fill:#FFFFFF;}
</style>
<g>
	<path class="st0" d="M247.4,171.8c-10.4,0-19.4,5.5-24.6,14.6c-24.6,42.1-49.6,84.2-74.5,126.7c-1,2.3-1.9,4.5-1.9,7.1
		s1,4.9,1.9,7.1c24.6,42.1,49.2,84.2,74.2,126.7c5.2,9.4,14.3,14.3,24.9,14.3c179.2,0,358.4,0,537.5,0c15.9,0,28.8-13,28.8-28.5
		c0-79.7,0-159.4,0-239.1c0-15.6-13-28.8-28.8-28.8C605.7,171.8,426.5,171.8,247.4,171.8L247.4,171.8z"/>
	<path class="st1" d="M247.4,454.3c-5.2,0-9.7-3.2-12.3-7.5c-24.6-42.1-49.2-84.2-74.2-126.7c24.6-42.1,49.2-84.2,73.9-126.4
		c2.9-4.5,7.1-7.5,12.6-7.5c179.2,0,358.4,0,537.5,0c7.8,0,14.6,6.5,14.6,14.3c0,79.7,0,159.4,0,239.4c0,7.5-6.8,14.3-14.6,14.3
		C605.7,454.3,426.5,454.3,247.4,454.3L247.4,454.3z"/>
	<polygon class="st0" points="188.7,320.2 257.1,439.7 312.2,439.7 243.8,320.2 312.2,200.6 257.1,200.6 	"/>
	<polygon class="st0" points="369.2,290.3 365,290.3 357.9,326.3 349.4,290.3 338.1,290.3 350.4,343.8 363.4,343.8 371.1,304.9 
		378.9,343.8 391.9,343.8 403.9,290.3 392.5,290.3 384.7,326.3 377,290.3 373.7,290.3 	"/>
	<path class="st0" d="M487.5,321.8v7.5l0,0c0,3.2,2.9,7.8,8.7,7.8c5.8,0,9.1-4.9,9.1-12s-3.9-10.7-9.1-10.7
		C491.3,314.3,487.5,317.2,487.5,321.8L487.5,321.8z M487.5,308.5v-17.8h-9.7v53.5h9.7v-1.6l0,0c0,0,4.2,2.9,10,2.9
		s18.1-4.9,18.1-20.4c0-15.9-12.6-20.1-17.2-20.1C493.6,304.9,491.7,305.9,487.5,308.5L487.5,308.5z"/>
	<path class="st0" d="M688,352.6l4.5-8.4l0,0c1.9,1,5.5,3.2,12.3,3.2c9.7,0,8.1-7.4,8.1-7.4s-3.2,2.3-7.5,2.3
		c-17.2,0-17.5-18.5-17.5-18.5s0-8.4,5.8-13.6c3.2-2.9,6.8-4.2,11.7-4.2c1.3,0,5.2,0.3,7.5,1.9l0,0v-2.3h10v38.9l0,0
		c0,9.1-11.7,12.3-17.8,12.3C699,356.8,691.9,354.5,688,352.6L688,352.6z M713,323.7c0-3.9-2-8.1-6.8-8.1c-5.2,0-7.1,4.5-7.1,8.1
		c0,3.6,1.6,8.4,7.1,8.4l0,0C711,332.2,713,327.9,713,323.7L713,323.7z"/>
	<path class="st0" d="M744.7,307.9v-17.2h-10v53.5h10v-22.7l0,0c0-3.6,3.2-6.8,6.8-6.8c3.6,0,7.5,2.3,7.5,6.8l0,0v22.7h9.7v-26.2
		l0,0c0-7.5-6.5-13-13.6-13C748.6,304.9,746,307.2,744.7,307.9L744.7,307.9z"/>
	<path class="st0" d="M471.3,344.1l-1.3-9.1l0,0c-4.5,1.3-6.8,0.3-6.8-2l0,0v-42.4h-10v46.7l0,0c0,3.9,2.6,8.1,10,8.1
		C467,345.4,471.3,344.1,471.3,344.1L471.3,344.1z"/>
	<path class="st0" d="M540.3,313c-4.2,0-8.7,3.9-8.7,12c0,8.4,4.5,12.3,8.7,12.3l0,0c3.9,0,8.7-3.9,8.7-12.3
		C549,316.9,544.2,313,540.3,313L540.3,313z M540.3,304.3c-9.4,0-18.8,7.4-18.8,20.7c0,13.3,9.4,21.1,18.8,21.1l0,0
		c9.4,0,18.5-7.8,18.5-21.1S549.3,304.3,540.3,304.3L540.3,304.3z"/>
	<path class="st0" d="M670.2,341.2v2.6h9.7v-38.2h-9.7V327l0,0c0,5.5-4.9,8.4-8.8,8.4c-3.6,0-5.8-2.6-5.8-6.5l0,0v-23.3h-10v25.6
		l0,0c0,7.1,6.2,13.6,14.3,13.6C665,344.8,668.9,342.5,670.2,341.2L670.2,341.2z"/>
	<path class="st0" d="M431.7,326.6v7.1l0,0c0,2.9-5.5,2.9-6.5,2.9c-1,0-6.8,0-6.8-4.9C418.4,327,425.6,326.6,431.7,326.6
		L431.7,326.6z M441.8,333.8v-20.1l0,0c0-5.2-4.9-9.1-15.6-9.1c-8.4,0-13.9,3.6-16.2,4.9l0,0l4.5,7.5l0,0c3.2-2.3,10-3.6,13-3.6
		c2.9,0,4.2,1.9,4.2,3.2l0,0v2.3l0,0c-3.2,0-12,1.6-15.2,2.6c-3.2,1-8.4,3.2-8.4,11c0,7.5,7.8,12.6,15.9,12.6c6.8,0,9.1-3.9,9.1-3.9
		s3.2,3.9,9.1,4.2l0,0l3.9-8.1l0,0C441.4,336.4,441.8,334.7,441.8,333.8L441.8,333.8z"/>
	<path class="st0" d="M590.8,314.3v-9.4l0,0c-9.4-0.3-11,2.3-13.3,4.5l0,0v-3.9h-10v38.6h10V325l0,0
		C577.5,319.2,583.7,314.3,590.8,314.3L590.8,314.3z"/>
	<path class="st0" d="M616.4,313c-4.2,0-8.7,3.9-8.7,12c0,8.4,4.9,12.3,8.7,12.3l0,0c4.2,0,9.1-3.9,9.1-12.3
		C625.5,316.9,620.6,313,616.4,313L616.4,313z M616.4,304.3c-9.1,0-18.5,7.4-18.5,20.7c0,13.3,9.1,21.1,18.5,21.1l0,0
		c9.7,0,18.8-7.8,18.8-21.1S625.8,304.3,616.4,304.3L616.4,304.3z"/>
	<polygon class="st0" points="485.2,244.7 485.2,267.4 474.8,267.4 474.8,228.1 458.6,250.8 442.1,228.5 442.1,267.4 432,267.4 
		432,213.9 445,213.9 458.6,233 471.9,213.9 485.2,213.9 485.2,229.1 	"/>
	<path class="st0" d="M520.2,249.8v7.5l0,0c0,2.9-5.8,2.9-6.5,2.9c-1,0-7.1-0.3-7.1-4.9C506.6,250.5,514,250.2,520.2,249.8
		L520.2,249.8z M530.2,257v-19.8l0,0c0-5.2-5.2-9.1-15.6-9.1c-8.4,0-14.3,3.6-16.2,4.9l0,0l4.2,7.5l0,0c3.2-2.3,10.4-3.9,13.3-3.9
		c2.9,0,4.2,2.3,4.2,3.6l0,0v2.3l0,0c-3.6,0-12,1.3-15.2,2.6c-3.2,1-8.4,3.2-8.4,11c0,7.5,7.8,12.6,15.6,12.6c6.8,0,9.1-4.2,9.1-4.2
		s3.6,4.2,9.4,4.2l0,0l3.9-7.8l0,0C529.9,259.9,530.2,258.3,530.2,257L530.2,257z"/>
	<path class="st0" d="M625.8,244.3H641l0,0c0-3.6-2.9-7.8-7.8-7.8C628.4,236.6,625.8,240.5,625.8,244.3L625.8,244.3z M625.5,251.8
		h25.3l0,0c0.6-4.5-1.3-24-17.5-24c-14.6,0-17.5,15.6-17.5,20.4c0,4.9,2.9,20.4,18.5,20.4c9.1,0,13.6-5.2,14.9-6.5l0,0l-6.2-5.8l0,0
		c0,0-2.9,3.6-8.4,3.6C628.7,259.9,625.5,255.7,625.5,251.8L625.5,251.8z"/>
	<polygon class="st0" points="584,232 584,213.9 574.3,213.9 574.3,267.4 584,267.4 584,257 588.2,252.8 597.9,267.4 610.3,267.4 
		595,245.6 610.6,229.4 597.3,229.4 584,243.7 584,235 	"/>
	<path class="st0" d="M564.6,237.9v-9.7l0,0c-9.4,0-10.7,2.6-13,4.9l0,0v-3.9h-10v38.2h10v-19.1l0,0
		C551.6,242.7,557.8,237.9,564.6,237.9L564.6,237.9z"/>
	<path class="st0" d="M684.1,266.4l-1.9-8.1l0,0c-6.8,1.9-8.8,0-8.8-1.6l0,0v-19.1h10v-8.4h-10v-15.2l-10,2.9v12.3h-6.2v8.4h6.2
		v22.7l0,0c0,4.9,2.9,8.4,10.4,8.4C679.3,268.6,682.8,267,684.1,266.4L684.1,266.4z"/>
	<path class="st0" d="M365.3,376.9h-11.7v12h12l0,0c4.5,0,6.5-3.2,6.5-6.2C372.1,379.5,369.8,376.9,365.3,376.9L365.3,376.9z
		 M366.6,397h-13v13.9h13.3l0,0c5.2,0,7.5-4.2,7.5-6.8C374.4,401.2,372.4,397,366.6,397L366.6,397z M377.3,391.4
		c1.3-0.6,5.8-4.5,5.8-11c0-6.2-5.5-13.6-14.3-13.6l0,0h-25.9v53.8h26.2l0,0c8.4,0,15.6-7.1,15.6-15.9
		C384.7,395.7,377.9,392.1,377.3,391.4L377.3,391.4z"/>
	<path class="st0" d="M430.1,396.6v4.9h-17.2l17.2-22.7v6.2V396.6z M440.8,395.7v5.8h7.1v9.7h-7.1v9.4h-10.7v-9.4h-28.8v-9.4
		l25.9-35h13.6v16.8V395.7z"/>
	<path class="st0" d="M539.3,402.5c0-4.9-3.6-9.1-8.8-9.1c-4.9,0-8.4,4.2-8.4,9.1s3.2,9.4,8.4,9.4
		C533.8,411.8,539.3,409.3,539.3,402.5L539.3,402.5z M538.7,380.8c3.2-1,6.5-2.3,9.7-3.6c-1.9-5.5-5.5-11-17.8-11
		c-12,0-21.1,8.8-21.1,27.5c0,10,3.9,17.2,6.8,21.1c2.6,3.9,9.1,6.5,14.9,6.5c6.2,0,18.8-3.2,18.8-18.8c0-15.9-12-18.8-17.5-18.8
		c-5.2,0-9.7,2.6-11.3,3.9c0-8.4,5.5-11.7,9.4-11.7C534.4,375.9,536.7,377.2,538.7,380.8L538.7,380.8z"/>
	<path class="st0" d="M480,388.5c-4.2,0-8.4-1.9-8.4-6.2c0-4.5,4.5-6.8,8.4-6.8l0,0c3.9,0,8.1,2.3,8.1,6.8c0,4.2-4.2,6.2-8.4,6.2
		H480z M480,411.8c-5.8,0-10-2.6-10-7.1c0-4.9,4.9-6.8,10-6.8l0,0c4.9,0,9.7,1.9,9.7,6.8c0,4.5-4.2,7.1-10,7.1H480z M479.7,366.2
		c9.1,0,19.8,4.2,19.8,16.2c0,8.4-6.5,10-6.5,10s8.1,2,8.1,12.6c0,10.4-8.7,16.5-21.4,16.5l0,0c-12.3,0-21.1-6.2-21.1-16.5
		c0-10.7,7.8-12.6,7.8-12.6s-6.5-1.6-6.5-10C459.9,370.4,470.9,366.2,479.7,366.2L479.7,366.2z"/>
</g>
</svg>
