<?xml version="1.0" encoding="utf-8"?>
<!-- Generator: Adobe Illustrator 26.0.2, SVG Export Plug-In . SVG Version: 6.00 Build 0)  -->
<svg version="1.1" id="Layer_1" xmlns="http://www.w3.org/2000/svg" xmlns:xlink="http://www.w3.org/1999/xlink" x="0px" y="0px"
	 viewBox="0 0 960 640" style="enable-background:new 0 0 960 640;" xml:space="preserve">
<style type="text/css">
	.st0{fill-rule:evenodd;clip-rule:evenodd;}
	.st1{fill-rule:evenodd;clip-rule:evenodd;fill:#FFFFFF;}
	.st2{fill-rule:evenodd;clip-rule:evenodd;fill:#BD002D;}
</style>
<g>
	<path class="st0" d="M335.6,391.1c-13.6,0-24.5,10.9-24.5,24.5c0,46.4,0,93.1,0,139.5c0,13.6,10.9,24.5,24.5,24.5
		c80,0,208.6,0,288.6,0c13.6,0,24.5-10.9,24.5-24.5c0-46.4,0-93.1,0-139.5c0-13.6-10.9-24.5-24.5-24.5
		C544.2,391.1,415.6,391.1,335.6,391.1L335.6,391.1z"/>
	<path class="st1" d="M335.6,403.4c-6.7,0-12.3,5.6-12.3,12.3c0,46.4,0,93.1,0,139.5c0,6.7,5.6,12.3,12.3,12.3c80,0,208.6,0,288.6,0
		c6.7,0,12.3-5.6,12.3-12.3c0-46.4,0-93.1,0-139.5c0-6.7-5.6-12.3-12.3-12.3C544.2,403.4,415.6,403.4,335.6,403.4L335.6,403.4z"/>
	<polygon class="st0" points="397.4,440.2 405.7,440.2 405.7,473.2 397.4,473.2 	"/>
	<path class="st0" d="M401.3,427.8c2.6,0,4.8,2.2,4.8,4.8s-2.1,4.8-4.8,4.8c-2.7,0-4.8-2.2-4.8-4.8S398.6,427.8,401.3,427.8"/>
	<path class="st0" d="M367.3,435.6h-6.7v29.1h6.7l0,0c5.6,0,12.5-3.5,12.5-14.7C379.8,439.1,372.9,435.6,367.3,435.6L367.3,435.6z
		 M367.6,427.1h-16V473h16l0,0c12.3,0,21.6-8,21.6-22.9C389.2,434.6,378.2,427.1,367.6,427.1L367.6,427.1z"/>
	<path class="st0" d="M466.3,458v6.4l0,0c0,2.4-4.8,2.4-5.6,2.4c-0.8,0-5.9,0-5.9-4C454.8,458.3,460.9,458.3,466.3,458L466.3,458z
		 M474.8,464.2v-17.1l0,0c0-4.5-4.3-7.7-13.3-7.7c-7.2,0-12,2.9-13.9,4l0,0l3.7,6.4l0,0c2.9-1.9,8.8-2.9,11.2-2.9
		c2.7,0,3.7,1.9,3.7,2.9l0,0v1.9l0,0c-2.9,0-10.1,1.1-13.1,2.1c-2.7,0.8-7.2,2.9-7.2,9.3c0,6.7,6.7,10.9,13.3,10.9
		c5.9,0,7.7-3.5,7.7-3.5s2.9,3.5,8,3.7l0,0l3.5-7l0,0C474.5,466.6,474.8,465.2,474.8,464.2L474.8,464.2z"/>
	<path class="st0" d="M492.9,453.5v6.7l0,0c0,2.9,2.9,6.7,8,6.7c4.8,0,7.7-3.7,7.7-10.4c0-6.1-3.5-8.8-7.7-8.8
		C496.4,447.6,492.9,449.8,492.9,453.5L492.9,453.5z M492.9,442.6v-15.5h-8.3V473h8.3v-1.6l0,0c0,0,4,2.7,9.1,2.7
		c4.8,0,15.5-3.7,15.5-17.6c0-13.3-10.7-17.1-14.9-17.1C498.5,439.4,496.9,440.4,492.9,442.6L492.9,442.6z"/>
	<path class="st0" d="M412.1,467.9l6.7-5.6l0,0c2.1,2.7,7.2,5.1,9.6,5.1c2.1,0,4.3-1.9,4.3-3.5c0-1.6-1.3-2.4-2.4-2.7
		c-1.3-0.3-5.6-1.3-6.4-1.6c-1.1-0.3-8.8-1.6-8.8-9.6c0-8.3,8.5-10.1,13.9-10.1c5.1,0,9.6,1.6,13.3,4.8l0,0l-5.6,5.9l0,0
		c-2.9-2.9-5.3-3.7-7.7-3.7c-2.7,0-4.5,0.8-4.5,2.9c0,1.9,1.3,2.1,2.1,2.4c0.8,0.3,6.4,1.3,7.5,1.6c1.3,0.3,8,2.4,8,9.9
		c0,7.7-7.2,10.7-14.1,10.7C421.2,474.3,414.5,470.8,412.1,467.9L412.1,467.9z"/>
	<path class="st0" d="M602.6,453.8c0,1.9,0,4,0,6.1c0,0.8-0.5,1.6-0.8,2.4c-0.5,0.5-1.1,1.3-1.6,1.9c-1.1,1.1-2.4,1.9-4.8,1.9
		c-5.1,0-7.5-3.2-7.5-9.6c0-6.1,3.2-9.6,7.5-9.6C599.6,446.8,602.6,449.8,602.6,453.8L602.6,453.8z M602.6,441.8c0-4.8,0-9.6,0-14.7
		c2.9,0,5.9,0,8.8,0c0,15.2,0,30.4,0,45.9c-2.9,0-5.9,0-8.8,0c0-0.5,0-1.3,0-2.1c0,0-1.1,1.3-3.2,2.1c-1.6,0.8-3.5,1.1-5.6,1.1
		c-2.4,0-6.1-0.8-8.8-2.9c-3.5-2.4-6.1-7.2-6.1-14.7c0-6.4,1.6-10.4,4.3-13.1c3.2-3.2,7.7-4.5,9.9-4.5
		C597,438.8,599.1,439.6,602.6,441.8L602.6,441.8z"/>
	<path class="st0" d="M552.2,453.2h13.1l0,0c0-2.9-2.4-6.4-6.7-6.4C554.6,446.8,552.2,450,552.2,453.2L552.2,453.2z M551.9,459.9
		h21.9l0,0c0.3-4.3-1.3-20.8-15.2-20.8c-12.3,0-15.2,13.3-15.2,17.4c0,4.3,2.7,17.6,16,17.6c7.7,0,11.7-4.3,12.8-5.3l0,0l-5.3-5.3
		l0,0c0,0-2.4,3.2-7.2,3.2C554.6,466.6,551.9,463.1,551.9,459.9L551.9,459.9z"/>
	<path class="st0" d="M539.9,473.2l-1.1-7.7l0,0c-4,1.1-6.1,0.3-6.1-1.6l0,0v-36.6h-8.3v40l0,0c0,3.2,2.1,7,8.5,7
		C536.4,474.3,539.9,473.2,539.9,473.2L539.9,473.2z"/>
	<path class="st0" d="M387.6,518.6v6.1l0,0c0,3.2,2.4,6.7,7.2,6.7c5.1,0,8-4.5,8-9.9c0-5.1-2.9-9.6-8-9.6
		C389.7,511.9,387.6,515.7,387.6,518.6L387.6,518.6z M387.6,507.4v-1.6H379v42.4h8.5v-12l0,0c0,0,2.7,3.5,8.8,3.5
		c11.7,0,15.2-12.3,15.2-17.6c0-4.3-1.6-9.1-4.3-12c-2.4-2.7-5.9-5.3-11.2-5.6C393.2,504.5,389.7,505.8,387.6,507.4L387.6,507.4z"/>
	<path class="st0" d="M426,518.9h13.1l0,0c0-2.9-2.4-6.4-6.4-6.4C428.4,512.5,426,515.7,426,518.9L426,518.9z M426,525.5h21.6l0,0
		c0.5-4.3-1.1-20.8-15.2-20.8c-12.3,0-14.9,13.3-14.9,17.3c0,4.3,2.4,17.9,16,17.9c7.7,0,11.7-4.5,12.8-5.6l0,0l-5.3-5.3l0,0
		c0,0-2.4,3.2-7.5,3.2C428.6,532.2,426,528.7,426,525.5L426,525.5z"/>
	<path class="st0" d="M500.4,518.6v6.1l0,0c0,3.2,2.4,6.7,7.5,6.7c4.8,0,7.7-4.5,7.7-9.9c0-5.1-2.9-9.6-7.7-9.6
		C502.8,511.9,500.4,515.7,500.4,518.6L500.4,518.6z M500.4,507.4v-1.6h-8.5v42.4h8.5v-12l0,0c0,0,2.7,3.5,9.1,3.5
		c11.5,0,14.9-12.3,14.9-17.6c0-4.3-1.6-9.1-4.3-12c-2.4-2.7-5.9-5.3-11.2-5.6C506,504.5,502.5,505.8,500.4,507.4L500.4,507.4z"/>
	<path class="st0" d="M559.6,518.9h13.1l0,0c0-2.9-2.4-6.4-6.4-6.4C562,512.5,559.6,515.7,559.6,518.9L559.6,518.9z M559.6,525.5
		h21.6l0,0c0.3-4.3-1.3-20.8-15.2-20.8c-12.3,0-14.9,13.3-14.9,17.3c0,4.3,2.4,17.9,15.7,17.9c7.7,0,11.7-4.5,12.8-5.6l0,0l-5.3-5.3
		l0,0c0,0-2.4,3.2-7.2,3.2C562.3,532.2,559.6,528.7,559.6,525.5L559.6,525.5z"/>
	<path class="st0" d="M468.9,512.2c-3.7,0-7.7,3.2-7.7,10.4c0,7.2,4,10.4,7.7,10.4l0,0c3.5,0,7.7-3.2,7.7-10.4
		C476.7,515.4,472.4,512.2,468.9,512.2L468.9,512.2z M468.9,505c-8.3,0-16,6.7-16,17.6c0,11.5,7.7,18.1,16,18.1l0,0
		c8.3,0,16-6.7,16-18.1C484.9,511.7,476.7,505,468.9,505L468.9,505z"/>
	<path class="st0" d="M547.4,538.9l-1.1-7.7l0,0c-4,1.1-5.9,0.3-5.9-1.6l0,0V493h-8.5v40l0,0c0,3.2,2.1,6.9,8.5,6.9
		C543.9,539.9,547.4,538.9,547.4,538.9L547.4,538.9z"/>
	<polygon class="st1" points="418.8,356.7 318,356.7 479.9,75.3 639.7,356.7 	"/>
	<path class="st2" d="M634.8,375.4c8.3,0,16-4.5,20.3-12c4.3-7.2,4.3-16.3,0-23.5L500.2,72c-4.2-7.2-11.9-11.7-20.3-11.7
		c-8.4,0-16.1,4.5-20.3,11.7L304.9,339.9c-4.3,7.2-4.3,16.3,0,23.5c4,7.5,12,12,20.3,12H634.8z M339,343.9h282L479.9,99.5L339,343.9
		z"/>
	<path class="st0" d="M458,293.2c0,16.3-4.3,33.9-4.5,35.2c-0.5,1.1-1.6,1.1-2.7,0.8c-0.8-0.3-6.7-2.9-8.3-3.2
		c-1.3-0.5-1.1-1.9-1.3-2.7l0,0l-3.7-19.5h3.2l0,0c-1.9-11.5-5.6-27.5-5.6-36.3c0-8.8,2.7-17.6,2.9-18.7c0.3-1.1,2.1-4.3,4.5-1.6
		c2.7,2.9,6.7,5.6,10.1,6.4c0.8,0.3,1.9,0.5,1.9,0.5s0,3.7,0,5.3C454.5,268.1,458,277.2,458,293.2L458,293.2z M493.5,325.2
		c0,0-8.5-45.9-8.8-47.7c-0.5-2.1-1.6-6.1-1.6-14.1l0,0c0-19.5,10.7-33.1,11.2-33.6c0.3-0.3,1.9-2.1,4,0.5c2.4,3.5,9.3,12.5,12,15.2
		c2.4,2.4,7.5,7.5,15.5,13.6l0,0c-1.9,1.9-1.6,4-1.6,4c1.1,0,2.4,0,3.7-0.3c0,0-0.3-1.1,0.3-1.9l0,0c0.5,0.5,3.5,2.7,5.6,2.9l0,0
		l-11.5,68.6l2.9,0.8l11.5-69.1l0,0c2.1-0.3,3.5-1.9,3.5-2.9c0-1.3-0.5-2.4-2.1-3.5c-1.9-1.3-11.7-8.5-19.5-18.4
		c-5.1-6.9-11.2-16.5-15.5-33.3l0,0c-0.5-2.4,1.1-3.2,1.6-3.2c0.8,0,1.9,0.3,2.9,0.3c9.1,0,12-7.5,12-11.2c0-3.7-3.2-12.8-13.3-12.8
		c-9.1,0-12.8,8.8-12.8,12.8c0,2.7-0.8,3.2-2.1,3.7l0,0c-3.2,1.9-10.9,4.8-20.5,16.3c-12.3,14.1-14.1,30.7-14.1,30.7
		s-0.8-0.5-1.6-0.8c-5.6-1.6-9.1-8.5-9.1-13.1c0-4.5,4.8-15.7,4.8-16c0.3-0.5,0.8-1.3,2.7-1.6c8.5-0.8,10.9-10.1,10.9-12.8
		c0-2.7-2.4-12.5-13.1-12.5c-10.7,0-12.8,9.9-12.8,12.8c0,2.7,0.3,3.7,0.5,5.1c0,1.1-1.1,2.1-2.1,3.2l0,0
		c-20.3,17.9-39.5,50.7-39.2,97.1l0,0h9.1l-1.9,29.3h17.3l0,0c3.2,0,2.7-2.7,1.1-3.2c-2.4-1.1-7.5-2.9-8.3-3.2
		c-0.8-0.5-1.6-1.3-0.8-3.5l0,0l5.1-19.5h6.7l9.6,29.3h39.2l0,0c0.8,0,1.9-0.5,2.4-1.6c0.3-1.1-1.3-1.9-1.9-2.1
		c-0.5,0-5.1-1.9-5.6-2.4c-0.3-0.3-1.3-0.8-1.1-2.4c0.3-1.3,3.2-14.9,3.2-30.7l0,0c1.9,4.8,4.8,12,6.7,18.9
		c2.1,6.9,4.3,16.5,4.5,18.4c0.5,2.1,2.1,1.9,2.1,1.9s16,0,16.8,0c0.8,0,1.9-0.8,1.9-1.9c0-1.3-1.3-1.9-1.3-1.9s-6.9-2.1-8-2.4
		C493.5,326.8,493.5,326,493.5,325.2L493.5,325.2z"/>
</g>
</svg>
