<?xml version="1.0" encoding="utf-8"?>
<!-- Generator: Adobe Illustrator 26.0.2, SVG Export Plug-In . SVG Version: 6.00 Build 0)  -->
<svg version="1.1" id="Layer_1" xmlns="http://www.w3.org/2000/svg" xmlns:xlink="http://www.w3.org/1999/xlink" x="0px" y="0px"
	 viewBox="0 0 960 640" style="enable-background:new 0 0 960 640;" xml:space="preserve">
<style type="text/css">
	.st0{fill-rule:evenodd;clip-rule:evenodd;fill:#BD002D;}
	.st1{fill-rule:evenodd;clip-rule:evenodd;fill:#F4D209;}
	.st2{fill-rule:evenodd;clip-rule:evenodd;}
	.st3{fill:none;}
</style>
<g>
	<polyline class="st0" points="480,86.1 480.2,86.1 502.5,87.2 524.5,90.4 546.2,95.7 567.2,103 587.5,112.2 606.8,123.4 
		624.9,136.3 641.7,150.9 657.1,167 670.8,184.5 682.9,203.3 693,223.1 701.3,243.7 707.6,265.1 711.8,287 713.9,309.1 713.8,331.4 
		711.7,353.5 707.5,375.4 701.2,396.7 692.9,417.4 682.6,437.1 670.6,455.8 656.8,473.3 641.4,489.4 624.5,504 606.4,516.9 
		587.1,528 566.8,537.2 545.7,544.5 524.1,549.7 502,552.8 479.8,553.9 457.5,552.8 435.5,549.6 413.8,544.3 392.8,537 372.5,527.8 
		353.2,516.6 335.1,503.7 318.3,489.1 302.9,473 289.2,455.5 277.1,436.7 267,416.9 258.7,396.3 252.4,374.9 248.2,353 246.1,330.9 
		246.2,308.6 248.3,286.5 252.5,264.6 258.8,243.3 267.2,222.6 277.4,202.9 289.4,184.2 303.2,166.7 318.6,150.6 335.5,136 
		353.6,123.1 372.9,112 393.2,102.8 414.3,95.5 435.9,90.3 458,87.2 480,86.1 	"/>
	<polyline class="st1" points="666.4,320.7 666.4,320.7 665.3,300.5 662,280.5 656.6,261 649.1,242.2 639.6,224.4 628.2,207.6 
		615.1,192.2 600.4,178.3 584.3,166 566.9,155.6 548.5,147.1 529.3,140.7 509.6,136.3 489.4,134.1 469.2,134.1 449,136.3 
		429.2,140.7 410.1,147.1 391.7,155.6 374.3,166 358.2,178.3 343.5,192.2 330.4,207.6 319,224.4 309.5,242.2 302,261 296.6,280.5 
		293.3,300.5 292.2,320.7 293.3,340.9 296.6,360.9 302,380.4 309.5,399.2 319,417 330.4,433.8 343.5,449.2 358.2,463.1 374.3,475.4 
		391.7,485.8 410.1,494.3 429.2,500.7 449,505.1 469.2,507.3 489.4,507.3 509.6,505.1 529.3,500.7 548.5,494.3 566.9,485.8 
		584.3,475.4 600.4,463.1 615.1,449.2 628.2,433.8 639.6,417 649.1,399.2 656.6,380.4 662,360.9 665.3,340.9 666.4,320.7 	"/>
	<path class="st2" d="M346.8,289.6L346.8,289.6l-8.1,1.1l-7.5,3.1l-6.4,4.9l-4.9,6.4l-3.1,7.5l-1.1,8.1l1.1,8.1l3.1,7.5l4.9,6.4
		l6.4,4.9l7.5,3.1l8.1,1.1h265l8.1-1.1l7.5-3.1l6.4-4.9l4.9-6.4l3.1-7.5l1.1-8l-1.1-8.1l-3.1-7.5l-4.9-6.4l-6.4-4.9l-7.5-3.1
		l-8.1-1.1H346.8 M616.4,212.2L616.4,212.2l-4-4.9l-5.2-3.6l-6-2l-3.9-0.4h-31.3V274H581v-25.7h16.4l6.2-0.9l5.7-2.6l4.8-4.1
		l2.3-3.2l2.8-6l1-6.5l-0.9-6.5l-2.7-6L616.4,212.2 M581,234.9h14.7l3.7-0.7l3.1-2.1l2.1-3.1l0.7-3.1v-1.7l-0.9-3.7l-2.3-3l-3.3-1.9
		l-3.2-0.6H581L581,234.9 M547.9,240.2L547.9,240.2V235l-1.3-9.3l-3.5-8.7l-5.5-7.6l-2.1-2.2l-7.2-4.6l-8.2-2.6l-4.8-0.5h-4.2
		l-8.5,1.4l-7.8,3.5l-3.9,2.8l-6,7.1l-4.1,8.4l-2,9.1l-0.2,3v5.2l1.3,9.3l3.5,8.7l5.4,7.6l2.1,2.2l7.2,4.6l8.2,2.6l4.8,0.5h4.2
		l8.5-1.4l7.8-3.5l3.9-2.8l6.1-7.2l4.2-8.4l2-9.2L547.9,240.2 M513.3,213.7L513.3,213.7l6,1l2.9,1.2l4.3,3.3l3,4.5l1,2.7l1.5,8.9
		l0,2.4l-0.9,8.9l-0.6,2.3l-2.2,4.9l-3.7,4l-2.4,1.6l-5.8,1.9l-3.1,0.2l-6-0.9l-2.9-1.2l-4.3-3.3l-3-4.5l-1-2.7l-1.5-8.9l0-2.4l1-9
		l0.6-2.3l2.3-4.9l3.7-4l2.4-1.6l5.8-1.9L513.3,213.7 M413.4,201.3v14.2H434V274h14.9v-58.5h20.6v-14.2H413.4 M384.9,231.8
		L384.9,231.8l4.6,1.6l6.3,4.2l4,4.5l2.2,5.9l0.4,6.2l-1.3,6.1l-3,5.5l-4.4,4.4l-5.5,3l-0.8,0.3l-10.4,2.1l-10.6-0.1l-10.3-2.3
		l-1.5-0.5l-8-4.6l-6.8-6.3l-0.4-0.4l12.6-9.7l6.9,5.6l1.8,1.1l7.2,2.6l6.5,0.5l4.1-0.4l3.8-1.8l1.5-1.2l1.5-2.4l0.5-2.8l-0.6-2.8
		l-1.7-2.3l-2.4-1.5l-0.8-0.3l-17.2-3.8l-5.9-2l-3.1-1.9l-4.3-4.8l-2.6-5.9l-0.6-6.3l1.4-6.2l3.1-5.3l5.5-5.1l6.7-3.4l9.3-1.7
		l9.3,0.5l9,2.5l8.2,4.4l5.1,4.2l-11.2,10.2l-6.2-4.3l-7.1-2.5l-5.9-0.6l-4,0.6l-3.6,1.9l-1.6,1.5l-1,2.2l-0.1,2.4l0.8,2.2l1.6,1.7
		l2,0.9L384.9,231.8"/>
	<g>
		<line class="st3" x1="366.2" y1="363.3" x2="366.2" y2="363.3"/>
		<path class="st2" d="M480.6,422.9h4.1v4.9h-6.4l-3.2,6.7l1,0.7l45.2-31.6l-1.4-5.1h-66l12.2,33.6l4.3,0.4l0.8,0.2l2.3-4.9h-4.1
			v-4.9h4.1l1.2-1.1l1.6-0.6l1.7,0l1.5,0.7L480.6,422.9 M455.4,466.8l3.2-6.7l-3.3-2.9l-2.3-3.7l-1-2.9h-3.6l-1.4,7.1l-2.7,6.6
			l-3.9,6l-5,5.1l-6,4l-6.6,2.8l-7,1.4l-7.2,0l-7.1-1.3l-6.7-2.7l-6-3.9l-5.1-5l-3.3-4.6l-3.1-6.5l-1.7-7l-0.4-7.2l1.1-7.1l2.4-6.8
			l3.7-6.2l4.8-5.3l5.8-4.3l6.5-3.1l7-1.7l7.2-0.3l7.1,1l5.3,1.8l14.5-25l-2.8-7.7l-3.3-0.8l-2.9-1.8l-2.2-2.6l-1.3-3l0-0.6l0.3-0.6
			l0.6-0.3l0.3,0h31.6l1.3,0.3l1.1,0.8l0.6,1.2l0,1.3l-0.6,1.2l-1.1,0.8l-0.7,0.2l-14.2,3.1l3.4,9.2h66.9l-1.5-5.5l-0.3-3l0.7-2.9
			l1.7-2.4l1.5-1.2l0.6-0.6l0.3-0.7l-0.1-0.8l-0.4-0.7l-0.7-0.4l-0.6-0.1h-14.1v-9.2h17.1l3,0.5l2.7,1.4l2.2,2.2l1.4,2.7l0.5,3
			l-0.5,3l-1.4,2.7l-2.2,2.1l-0.8,0.5l-1,0.9l-0.5,1.3l0.1,1.2l7.9,29.6l6.9-1.9l7.2-0.5l7.1,0.9l6.8,2.3l6.2,3.6l5.4,4.7l4.4,5.7
			l3.2,6.4l1.9,6.9l0.5,7.2l-0.9,7.1l-2.3,6.8l-3.6,6.2l-4.7,5.4l-5.7,4.4l-2.1,1.2l-6.6,2.7l-7.1,1.4l-7.2,0l-7-1.4l-6.6-2.8l-6-4
			l-5.1-5.1l-4-6l-2.7-6.6l-1.4-7.1l0-7.2l1.4-7l2.8-6.6l4-5.9l5.1-5.1l2-1.5l-1.2-4.4l-42.4,29.7l0.7,4.3l-0.5,4.3l-1.7,4l-2.8,3.3
			l-3.6,2.4l-4.1,1.3l-4.3,0.1l-2.6-0.6l-2.3,4.9h4.1v4.9h-4.1l-1.2,1.2l-1.6,0.6l-1.7,0l-1.5-0.7l-1.1-1.1H449v-4.9L455.4,466.8
			 M548.2,444.2L548.2,444.2l-4.5-3.7l-3.5-4.7l-2.2-5.4l-0.1-0.4l-1.7-6.3l5.9-1.7l6.2-0.2l6,1.2l5.6,2.6l4.8,3.9l3.7,4.9l2.4,5.7
			l1,6.1l-0.5,6.2l-2,5.9l-3.3,5.2l-4.5,4.3l-1.1,0.8l-5.1,2.6l-5.6,1.5l-5.8,0.2l-5.6-1.1l-5.3-2.3l-4.6-3.4l-3.7-4.4l-2.7-5.1
			l-1.5-5.6l-0.2-5.7l1.1-5.6l2.3-5.2l3.4-4.6l0.6-0.6l2.1,7.7l2,4.7l3.1,4l4.1,3.1l4.7,1.9l1.5,0.3l1.4,0l1.3-0.6l1-1l0.5-1.3
			l0-1.4l-0.6-1.3L548.2,444.2 M407.6,445.6L407.6,445.6l-0.4,1.4l0.2,1.5l0.8,1.2l1.3,0.7l1,0.2h26.8l-1.5,6l-2.9,5.4l-4.1,4.6
			l-5.1,3.4l-5.8,2.1l-6.1,0.7l-6.1-0.8l-5.8-2.2l-5-3.6l-4-4.7l-0.6-1l-2.6-5.6l-1.1-6.1l0.3-6.2l1.8-5.9l3.2-5.3l4.3-4.4l5.3-3.2
			l5.9-1.9l6.2-0.4l6.1,1.1l1.1,0.4L407.6,445.6 M457.6,435.2l-12.9-35.4L434,418.1l5.3,4.9l4.2,5.8l3,6.5l1.7,7l0.2,1.6h3.6l1.6-4
			l2.6-3.4L457.6,435.2 M457.1,447.3L457.1,447.3l0.5-3l1.4-2.7l2.2-2.2l2.7-1.4l3-0.5l3,0.5l2.7,1.4l2.2,2.2l1.4,2.7l0.5,3l-0.5,3
			l-1.4,2.7l-2.2,2.2l-2.7,1.4l-3,0.5l-3-0.5l-2.7-1.4L459,453l-1.4-2.7L457.1,447.3 M428.5,427.8L428.5,427.8l4.2,4.5l3,5.4l1.6,6
			l0,0.3h-18.2L428.5,427.8"/>
	</g>
</g>
</svg>
