<?xml version="1.0" encoding="utf-8"?>
<!-- Generator: Adobe Illustrator 26.0.2, SVG Export Plug-In . SVG Version: 6.00 Build 0)  -->
<svg version="1.1" id="Layer_1" xmlns="http://www.w3.org/2000/svg" xmlns:xlink="http://www.w3.org/1999/xlink" x="0px" y="0px"
	 viewBox="0 0 960 640" style="enable-background:new 0 0 960 640;" xml:space="preserve">
<style type="text/css">
	.st0{fill-rule:evenodd;clip-rule:evenodd;fill:#FFFFFF;stroke:#006FB6;stroke-width:2.2787;stroke-miterlimit:10;}
	.st1{fill-rule:evenodd;clip-rule:evenodd;fill:#006FB6;}
	.st2{fill-rule:evenodd;clip-rule:evenodd;fill:#FFFFFF;}
	.st3{fill-rule:evenodd;clip-rule:evenodd;}
	.st4{fill-rule:evenodd;clip-rule:evenodd;fill:#17683A;}
	.st5{fill-rule:evenodd;clip-rule:evenodd;fill:#F4D209;}
</style>
<g>
	<path class="st0" d="M829.5,111.4c9.5,0,17.2,7.5,17.2,17l0,0l0.2,383.2l0,0c0,9.3-7.7,17-17.2,17l0,0H130.3l0,0
		c-9.5,0-17.2-7.7-17.2-17l0,0V128.4l0,0c0-9.5,7.7-17,17.2-17l0,0H829.5L829.5,111.4z"/>
	<path class="st1" d="M829.5,119.9c4.8,0,8.7,3.9,8.7,8.5l0,0v383.2l0,0c0,4.6-3.9,8.5-8.5,8.5l0,0H130.3l0,0
		c-4.6,0-8.5-3.9-8.5-8.5l0,0l-0.2-383.2l0,0c0-4.6,3.9-8.5,8.7-8.5l0,0H829.5L829.5,119.9z"/>
	<path class="st2" d="M818.1,379c3.3,0,5.8,2.5,5.8,5.8v102.4c0,3.1-2.5,5.6-5.8,5.6H532c-3.1,0-5.8-2.5-5.8-5.6l0-102.4
		c0-0.1,0-0.1,0-0.2c0-3.1,2.5-5.6,5.6-5.6c0.1,0,0.1,0,0.2,0H818.1z"/>
	<path class="st3" d="M565.2,405.9l5.8-2.5l0,0c-1.9-4.1-6.6-8.3-13.1-8.3c-6.6,0-15,4.8-15,16.2c0,11.2,8.3,16.4,15,16.4
		c4.4,0,7.3-1.9,7.9-2.3l0,0v2.1h5.8v-18.1h-13.7v5.2h7.9l0,0c0,3.1-2.7,7.5-7.9,7.5c-5.2,0-8.5-4.6-8.5-10.6
		c0-6.2,3.7-10.2,8.1-10.2C561.9,401.2,564,403.7,565.2,405.9L565.2,405.9z"/>
	<polygon class="st3" points="629.8,401.6 626.3,401.6 626.3,427.5 620,427.5 620,401.6 611.1,401.6 611.1,395.6 635.2,395.6 
		635.2,401.6 631.6,401.6 	"/>
	<polygon class="st3" points="654.9,404.7 660.7,404.7 660.7,427.7 654.9,427.7 	"/>
	<path class="st3" d="M657.3,395.1c1.8,0,3.3,1.5,3.3,3.3c0,1.8-1.5,3.3-3.3,3.3s-3.3-1.5-3.3-3.3
		C654.1,396.6,655.5,395.1,657.3,395.1"/>
	<path class="st3" d="M700,412v15.6h-5.8v-14.1l0,0c0-2.3-1.7-3.9-3.7-3.9c-1.7,0-3.9,1.7-3.9,4.6l0,0v13.3h-6v-14.3l0,0
		c0-2.1-1.7-3.7-3.5-3.7c-1.5,0-4.1,1.4-4.1,4.4l0,0v13.5h-6v-23h6v1.4l0,0c0,0,2.1-1.7,6-1.7c3.5,0,5.6,2.3,5.6,2.3
		c-0.2,0,2.3-2.5,6.2-2.5C696.9,404.1,700,408.2,700,412L700,412z"/>
	<path class="st3" d="M649.3,409.9v-5.8l0,0c-5.6,0-6.4,1.5-7.7,2.9l0,0v-2.3h-6v22.8h6v-11.4l0,0
		C641.6,412.8,645.2,409.9,649.3,409.9L649.3,409.9z"/>
	<path class="st3" d="M593.5,426.9l-1-4.8l0,0c-4.2,1.2-5.4,0-5.4-1l0,0v-11.4h6v-5h-6v-9.1l-6,1.7v7.3h-3.7v5h3.7v13.5l0,0
		c0,2.7,1.9,5,6.4,5C590.6,428.2,593,427.3,593.5,426.9L593.5,426.9z"/>
	<path class="st3" d="M739.4,412v15.6h-5.8v-14.1l0,0c0-2.3-1.7-3.9-3.7-3.9s-4.1,1.7-4.1,4.6l0,0v13.3h-5.8v-14.3l0,0
		c0-2.1-1.7-3.7-3.5-3.7c-1.5,0-4.1,1.4-4.1,4.4l0,0v13.5h-6v-23h6v1.4l0,0c0,0,2.1-1.7,6-1.7c3.5,0,5.6,2.3,5.4,2.3
		c0,0,2.5-2.5,6.4-2.5C736.3,404.1,739.4,408.2,739.4,412L739.4,412z"/>
	<polygon class="st3" points="746.3,404.7 752.1,404.7 752.1,427.7 746.3,427.7 	"/>
	<path class="st3" d="M748.7,395.1c1.8,0,3.3,1.5,3.3,3.3c0,1.8-1.5,3.3-3.3,3.3s-3.3-1.5-3.3-3.3
		C745.4,396.6,746.8,395.1,748.7,395.1"/>
	<path class="st3" d="M779.1,412.6v14.9h-6v-14.3l0,0c0-1.7-1.4-3.5-3.9-3.5s-4.8,2.3-4.8,5.4l0,0v12.4h-5.8v-22.8h5.8v1.7l0,0
		c0,0,2.5-2.3,5.8-2.3C775.7,404.1,779.1,408.6,779.1,412.6L779.1,412.6z"/>
	<path class="st3" d="M784.7,432.5l2.7-4.8l0,0c1.2,0.6,3.3,1.9,7.5,1.9c5.8,0,4.8-4.4,4.8-4.4s-1.9,1.2-4.6,1.2
		c-10,0-10.2-10.8-10.2-10.8s0-5.2,3.5-8.1c1.9-1.7,3.9-2.5,6.8-2.5c1,0,3.1,0.2,4.6,1l0,0v-1.2h6v23.1l0,0c0,5.2-7.1,7.1-10.8,7.1
		C791.3,435,787,433.8,784.7,432.5L784.7,432.5z M799.8,415.5c0-2.5-1.2-4.8-4.2-4.8s-4.1,2.7-4.1,4.8c0,2.1,0.8,5,4.1,5l0,0
		C798.6,420.5,799.8,418,799.8,415.5L799.8,415.5z"/>
	<path class="st3" d="M559,447h-6.9v7.3h7.1l0,0c2.7,0,3.9-1.9,3.9-3.9C563.1,448.7,561.5,447,559,447L559,447z M559.6,458.9h-7.5
		v8.3h7.9l0,0c3.1,0,4.2-2.3,4.2-4.1C564.2,461.4,563.3,458.9,559.6,458.9L559.6,458.9z M566,455.8c1-0.6,3.5-2.9,3.5-6.6
		c0-3.9-3.1-8.1-8.3-8.1l0,0h-15.4V473h15.4l0,0c5.2,0,9.5-4.1,9.5-9.5C570.6,458.1,566.5,456.2,566,455.8L566,455.8z"/>
	<path class="st3" d="M587.6,441.2h5.6V473H587v-22h-5.2v-5.2h0.8l0,0C584.1,445.8,586.8,445.8,587.6,441.2L587.6,441.2z"/>
	<path class="st3" d="M606.7,453.1h-6.6l0,0c-0.2-5.8,3.1-12.7,12.9-12.7c9.5,0,11.6,8.1,11.6,11s-0.2,8.7-12.2,15.8l0,0h11.8v5.8
		h-23v-6l0,0c10-6.9,16.6-10.4,16.6-15.1c0-2.7-2.3-5.6-5.8-5.6C608.4,446.4,606.7,449.8,606.7,453.1L606.7,453.1z"/>
	<path class="st3" d="M635.2,453.1h-6.6l0,0c-0.2-5.8,3.1-12.7,12.9-12.7c9.5,0,11.6,8.1,11.6,11s-0.2,8.7-12.2,15.8l0,0h11.8v5.8
		h-23v-6l0,0c10-6.9,16.6-10.4,16.6-15.1c0-2.7-2.1-5.6-5.8-5.6C637,446.4,635.2,449.8,635.2,453.1L635.2,453.1z"/>
	<path class="st3" d="M663.8,441.2h5.8V473h-6.4v-22H658v-5.2h1l0,0C660.3,445.8,663,445.8,663.8,441.2L663.8,441.2z"/>
	<path class="st2" d="M366.1,386.2c4.6,0,8.5,3.9,8.5,8.5v102.6c0,4.6-3.9,8.5-8.5,8.5H144.6c-4.8,0-8.5-3.9-8.5-8.5V394.7
		c0-4.7,3.8-8.5,8.5-8.5H366.1z"/>
	<path class="st4" d="M366.1,389.1c3.1,0,5.6,2.5,5.6,5.6v102.6c0,3.1-2.5,5.6-5.6,5.6H144.6c-3.1,0-5.8-2.5-5.8-5.6V394.7
		c0-3.1,2.5-5.6,5.6-5.6c0.1,0,0.1,0,0.2,0H366.1z"/>
	<polygon class="st2" points="168.3,405.5 158.5,405.5 158.5,437.5 179.3,437.5 179.3,432.5 164.1,432.5 164.1,423.6 177.2,423.6 
		177.2,418.8 164.1,418.8 164.1,410.7 178.6,410.7 178.6,405.5 175.3,405.5 	"/>
	<path class="st2" d="M282.9,439v-24.3h-5.2v1.4l0,0c-1.9-1.4-3.5-2.1-5.8-2.1c-2.1,0-5,1.2-6.8,3.1c-1.9,2.1-3.1,5-3.1,7.9
		c0,2.9,1.7,7.3,4.4,9.3c2.7,1.7,4.8,1.7,5.6,1.7c1,0,3.5-0.2,5.6-1.7l0,0v2.7l0,0c0,1.9-1,3.7-5.4,3.7c-4.1,0-6-1.4-6.9-1.7l0,0
		l-1.9,4.4l0,0c1,0.4,3.7,2.3,9.3,2.3C278.9,445.6,282.9,442.9,282.9,439L282.9,439z M278.1,425.2c0-1.9-1-6-5.2-6
		c-4.4,0-5.4,3.9-5.4,6l0,0c0,2.5,1.7,5.8,5.4,5.8C276.4,430.9,278.1,428,278.1,425.2L278.1,425.2z"/>
	<polygon class="st2" points="206,416.5 206,423.6 215,414.5 221.8,414.5 212.3,424.2 222,437.5 215.6,437.5 208.8,427.7 206,430.5 
		206,437.5 200.5,437.5 200.5,405.5 206,405.5 206,411.1 	"/>
	<path class="st2" d="M196.7,437.7l-0.8-4.4l0,0c0,0-1.4,0.2-2.7,0.2c-1.2,0-1.9-1-1.9-2.1l0,0v-25.7h-5v27.6l0,0
		c0,3.1,2.3,4.8,6,4.8C194.2,438.1,196.7,437.7,196.7,437.7L196.7,437.7z"/>
	<path class="st2" d="M257.1,421.5v16h-5.4v-15.4l0,0c0-2.1-1.9-3.1-3.7-3.1c-1.7,0-5,1.4-5,4.8l0,0v13.7h-5.2v-22.8h5.2v1.4l0,0
		c0,0,2.5-1.9,6-1.9C253.2,414.2,257.1,417,257.1,421.5L257.1,421.5z"/>
	<path class="st2" d="M303.2,437.1l-0.6-4.4l0,0c-2.3,0.2-5.8,1-5.8-1.5l0,0V419h5.6v-4.2h-5.6v-9.1l-5.2,1.7v7.3h-4.2v4.2h4.2v13.5
		l0,0c0,3.1,2.1,5.2,5.6,5.2C300.7,437.7,303.2,437.1,303.2,437.1L303.2,437.1z"/>
	<polygon class="st2" points="225.4,414.5 230.8,414.5 230.8,437.5 225.4,437.5 	"/>
	<path class="st2" d="M227.8,405.6c1.7,0,3.1,1.4,3.1,3.1c0,1.7-1.4,3.1-3.1,3.1c-1.7,0-3.1-1.4-3.1-3.1
		C224.7,407,226,405.6,227.8,405.6"/>
	<path class="st2" d="M317.8,433.4c4.1,0,6-3.9,6-7.5c0-3.9-2.1-7.3-6-7.3l0,0c-3.7,0-5.8,3.5-5.8,7.3
		C312.1,429.6,313.8,433.4,317.8,433.4L317.8,433.4z M317.8,438.3c6.8,0,11.4-5.6,11.4-12.3c0-6.9-5.2-12.2-11.4-12.2l0,0
		c-6,0-11.2,5.2-11.2,12.2C306.7,432.7,311.3,438.3,317.8,438.3L317.8,438.3z"/>
	<path class="st2" d="M353.9,421.5v16h-5.2v-15.4l0,0c0-2.1-1.9-3.1-3.7-3.1c-1.9,0-5.2,1.4-5.2,4.8l0,0v13.7h-5.2v-22.8h5.2v1.4
		l0,0c0,0,2.5-1.9,6-1.9C350.1,414.2,353.9,417,353.9,421.5L353.9,421.5z"/>
	<path class="st5" d="M173.7,473h-10.4l5.2-16.2L173.7,473L173.7,473z M168.7,477.4h-6.9L160,483h-5.2l10.2-32h6.9l10.2,32h-5.4
		l-1.7-5.6H168.7L168.7,477.4z"/>
	<path class="st5" d="M198,451.2h5V483h-5.4v-22.6h-5.6v-4.1l2.9-0.4l0,0C197.7,455.8,198,453.7,198,451.2L198,451.2z"/>
	<path class="st5" d="M227.6,471.3l-8.5,6.9h12.7v4.8h-21.2v-4.8l11.8-9.1l0,0c3.5-2.9,4.1-6.2,4.1-7.7s-0.8-5.8-5.4-5.8
		c-4.8,0-5.6,4.8-5.6,6.8l0,0H210l0,0c0-6.4,3.5-11.8,11.4-11.8c8.5,0,11,6.6,11,10.6C232.4,464.1,230.6,468.9,227.6,471.3
		L227.6,471.3z"/>
	<path class="st5" d="M255,471.3l-8.7,6.9h12.9v4.8h-21.4v-4.8l11.8-9.1l0,0c3.7-2.9,4.2-6.2,4.2-7.7s-0.8-5.8-5.6-5.8
		c-4.8,0-5.6,4.8-5.6,6.8l0,0h-5.2l0,0c0-6.4,3.5-11.8,11.2-11.8c8.7,0,11,6.6,11,10.6C259.6,464.1,257.8,468.9,255,471.3L255,471.3
		z"/>
	<path class="st2" d="M482.8,373.4c4.1-6.6,5.4-12.4,5.4-20.1c0-21.8-17.9-39.9-39.9-39.9c-22,0-40.1,18.1-40.1,39.9
		c0,22,18.1,39.9,40.1,39.9c7.7,0,13.3-1.5,20.1-5.4c0,0,0,0,0,0.2c4.6,8.1,9.3,16.2,14.1,24.5c0,0,0,0,0.2,0.2
		c-4.4,2.3-8.9,4.2-13.5,5.6c0,0,0,0,0,0.2c-2.3,0.8-4.1,2.9-4.1,5.4c0,0,0,0,0.2,0c0,29.1,0,58.3,0,87.6c0.2,0,0.4,0,0.6,0
		c-11.6,0-23.2,0-34.7,0c0-29.1,0-58.3,0-87.6c0-2.5-1.7-4.8-4.1-5.6c0,0,0,0,0.2,0c-21.4-6.8-37.2-22.6-44.2-43.8c0,0,0,0,0.2,0
		c-0.8-2.5-2.9-4.2-5.4-4.2c0,0,0,0,0,0.2c-47.3,0-94.5,0-142,0c-5.6-5.6-11.4-11.4-17.2-17.2c5.6-5.6,11.4-11.2,17.2-17
		c47.3,0,94.5,0,142,0c2.3,0,4.6-1.5,5.4-3.9c0,0,0,0-0.2,0l0,0c6.8-21.2,23.2-37.6,44.2-44.4c0,0,0,0,0,0.2
		c2.3-0.8,4.1-3.1,4.1-5.4c0-16.4,0-32.8,0-49.2c5.6-5.6,11.2-11.2,17-17c5.6,5.6,11.4,11.2,17.2,17c0,16.4,0,32.8,0,49.2
		c0,0,0,0-0.2,0c0,2.5,1.7,4.6,4.1,5.4c0,0,0-0.2,0.2-0.4c22.6,7.3,40.1,26.2,45.7,49.4c0,0.2,0,0.4,0,0.8c0.6,2.7,2.7,4.4,5.6,4.4
		l0,0l0,0c64.4,0,128.9,0,193.5,0c3.7,3.7,7.3,7.3,11.2,11.2c-3.7,3.7-7.3,7.3-11.2,11.2c-64.4,0-128.9,0-193.5,0l0,0l0,0
		c-2.9,0-5,1.9-5.6,4.4l0,0c-1.5,6.4-3.9,12.5-7.1,18.3c-8.1-4.6-16.2-9.5-24.5-14.3C483.4,373.4,483.2,373.4,482.8,373.4
		L482.8,373.4z"/>
	<path class="st2" d="M140.5,179.4c-2.5,0-4.6-2.1-4.6-4.4v-36.3c0-2.4,2-4.4,4.4-4.4c0.1,0,0.1,0,0.2,0l54.2,0
		c2.5,0,4.4,1.9,4.4,4.4v36.3c0,2.3-1.9,4.4-4.4,4.4H140.5z"/>
	<path class="st3" d="M140.5,177c-1.4,0-2.3-1-2.3-2.3v-36.1c0-1.2,0.9-2.1,2.1-2.1c0.1,0,0.1,0,0.2,0l54.2,0c1.2,0,2.3,1,2.3,2.1
		v36.1c0,1.4-1.2,2.3-2.3,2.3H140.5z"/>
	<path class="st2" d="M156,144.6h3.9v25.5h-4.2v-17.9h-4.4v-3.3l2.5-0.2l0,0C155.6,148.5,156,146.6,156,144.6L156,144.6z"/>
	<path class="st2" d="M169.5,162.8l-4.2,1.2l0,0c1.2,3.7,4.1,6.9,9.3,6.9c1.9,0,9.5-1.2,9.5-9.5c0-8.1-6.9-9.3-8.5-9.3
		c-1.7,0-3.5,0.8-4.6,1.4l0,0l0.8-4.8h11v-4.1h-14.9l-2.1,13.3l4.6,0.6l0,0c0.6-1.4,2.1-2.3,4.2-2.3c2.5,0,5.2,1.5,5.2,5.4
		c0,3.7-2.5,5.2-5.2,5.2C172,166.8,170.1,165.1,169.5,162.8L169.5,162.8z"/>
	<path class="st2" d="M282.9,134.2c-4.6,0-8.5,3.9-8.5,8.5l0,0v56.9l0,0c0,4.8,3.9,8.7,8.5,8.7l0,0h330.5l0,0c4.8,0,8.5-3.9,8.5-8.7
		l0,0v-56.9l0,0c0-4.6-3.7-8.5-8.5-8.5l0,0H282.9L282.9,134.2z"/>
	<path class="st4" d="M613.4,137.1c3.3,0,5.8,2.5,5.8,5.6l0,0v56.9l0,0c0,3.3-2.5,5.8-5.8,5.8l0,0H282.9l0,0c-3.1,0-5.8-2.5-5.8-5.8
		l0,0v-56.9l0,0c0-3.1,2.7-5.6,5.8-5.6l0,0H613.4L613.4,137.1z"/>
	<path class="st5" d="M525.6,175.5h-10.4l5.2-16.2L525.6,175.5L525.6,175.5z M520.4,179.9h-6.8l-1.7,5.6h-5.2l10.2-32h6.9l10,32
		h-5.2l-1.7-5.6H520.4L520.4,179.9z"/>
	<path class="st5" d="M549.9,153.5h5v32h-5.4V163H544v-4.1l3.1-0.4l0,0C549.6,158.3,549.9,156.2,549.9,153.5L549.9,153.5z"/>
	<path class="st5" d="M579.5,173.8l-8.7,6.8h12.7v5h-21.2v-4.8l11.8-9.3l0,0c3.7-2.7,4.2-6,4.2-7.5c0-1.7-0.8-5.8-5.6-5.8
		c-4.8,0-5.6,4.6-5.6,6.8l0,0h-5.2l0,0c0-6.4,3.3-11.8,11.2-11.8c8.7,0,11,6.6,11,10.6C584.1,166.6,582.4,171.3,579.5,173.8
		L579.5,173.8z"/>
	<path class="st5" d="M595.1,153.5h4.8v32h-5.4V163h-5.6v-4.1l3.1-0.4l0,0C594.7,158.3,595.1,156.2,595.1,153.5L595.1,153.5z"/>
	<path class="st2" d="M322.9,161l-5,2.3l0,0c-1.5-2.7-4.1-5.4-7.9-5.4c-5.2,0-9.6,4.6-9.6,11.2c0,6.8,3.7,12.2,9.6,12.2
		c5.8,0,7.5-5,7.7-5.4l0,0l5.2,2.3l0,0c-1.4,2.3-4.8,8.1-13.1,8.1s-15-6.2-15-16.6c0-11.4,7.7-16.8,14.9-16.8
		C316.5,152.9,320.6,157,322.9,161L322.9,161z"/>
	<path class="st2" d="M481.3,171.6v4.8l0,0c0,2.3-2.3,4.6-5.2,4.6c-2.9,0-6-2.3-6-7.1c0-4.6,3.1-6.9,6-6.9
		C478.9,167,481.3,169.3,481.3,171.6L481.3,171.6z M481.3,164.3v-10.8h5.2v32h-5.2V184l0,0c-0.8,0.8-3.1,1.9-5.8,1.9
		c-2.7,0-10.8-1-10.8-12c0-11,8.9-11.6,10.8-11.6C477.2,162.4,479.3,163,481.3,164.3L481.3,164.3z"/>
	<path class="st2" d="M359.7,175.3v4.2l0,0c-0.6,1.5-2.7,2.7-4.6,2.7c-0.6,0-4.2-0.2-4.2-3.5C350.8,175.7,355.5,175.7,359.7,175.3
		L359.7,175.3z M364.9,186.3l2.5-3.7l0,0c-1.5-0.6-2.3-1-2.3-2.5l0,0v-11.2l0,0c0-3.3-2.5-6.6-9.5-6.6c-4.8,0-7.9,1.9-9.1,2.3l0,0
		l1.9,4.1l0,0c2.1-1,4.6-1.9,7.7-1.9c2.9,0,3.5,1.9,3.5,2.7l0,0v1.7l0,0c-3.3,0.4-6,0.6-7.3,0.8c-1.5,0.4-6.8,1.5-6.8,6.8
		c0,5.4,5.4,7.5,8.9,7.5c3.5,0,5.4-1.5,6.2-2.3l0,0C362.2,185.7,363.6,186.3,364.9,186.3L364.9,186.3z"/>
	<path class="st2" d="M412.4,161.2v1.5h4.6v4.2h-4.6v18.5H407V167h-3.9v-4.2h3.9v-4.1l0,0c0-3.7,3.7-5.4,7.9-5.4
		c3.3,0,3.7,0.6,3.7,0.6l0,0l-0.4,4.2l0,0c0,0-1.2-0.2-2.3-0.2C413,157.9,412.4,159.5,412.4,161.2L412.4,161.2z"/>
	<path class="st2" d="M432.3,181.5c4.1,0,5.8-3.9,5.8-7.5c0-3.9-2.1-7.3-5.8-7.3l0,0c-3.9,0-6,3.5-6,7.3
		C426.3,177.6,428.2,181.5,432.3,181.5L432.3,181.5z M432.3,186.3c6.6,0,11.4-5.6,11.4-12.4c0-6.9-5.4-12.1-11.4-12.1l0,0
		c-6.2,0-11.4,5.2-11.4,12.1C420.9,180.7,425.5,186.3,432.3,186.3L432.3,186.3z"/>
	<path class="st2" d="M341.2,162.4v5l0,0c-4.2,0-7.3,2.5-7.3,5.6l0,0v12.5h-5.2v-22.8h5.2v2.1l0,0
		C334.8,163.9,337.7,162,341.2,162.4L341.2,162.4z"/>
	<polygon class="st2" points="385.4,162.8 387.7,162.8 391,177.8 394.2,162.8 399.8,162.8 394.1,185.5 388.5,185.5 384.6,170.5 
		380.6,185.5 375,185.5 369.2,162.8 374.8,162.8 378,177.8 381.3,162.8 383.3,162.8 	"/>
	<path class="st2" d="M461.8,162.4v5l0,0c-4.2,0-7.3,2.5-7.3,5.6l0,0v12.5h-5.2v-22.8h5.2v2.1l0,0
		C455.6,163.9,458.3,162,461.8,162.4L461.8,162.4z"/>
</g>
</svg>
